<?xml version="1.0" encoding="UTF-8" standalone="no"?>
<!DOCTYPE svg PUBLIC "-//W3C//DTD SVG 1.1//EN"
 "http://www.w3.org/Graphics/SVG/1.1/DTD/svg11.dtd">
<!-- Generated by graphviz version 12.2.1 (20241206.2353)
 -->
<!-- Title: ONTO Pages: 1 -->
<svg width="218pt" height="198pt"
 viewBox="0.00 0.00 218.00 197.85" xmlns="http://www.w3.org/2000/svg" xmlns:xlink="http://www.w3.org/1999/xlink">
<g id="graph0" class="graph" transform="scale(1 1) rotate(0) translate(4 193.85)">
<title>ONTO</title>
<polygon fill="white" stroke="none" points="-4,4 -4,-193.85 214,-193.85 214,4 -4,4"/>
<g id="clust1" class="cluster">
<title>cluster_legend</title>
<polygon fill="#ffffff" stroke="black" points="8,-8 8,-181.85 202,-181.85 202,-8 8,-8"/>
<text text-anchor="middle" x="105" y="-168.35" font-family="Helvetica,sans-Serif" font-size="10.00">Legend</text>
</g>
<!-- legend_class -->
<g id="node1" class="node">
<title>legend_class</title>
<ellipse fill="#4472c4" stroke="black" cx="89" cy="-125.8" rx="36" ry="28.8"/>
<text text-anchor="middle" x="89" y="-122.13" font-family="Helvetica,sans-Serif" font-size="9.00" fill="white">Class</text>
</g>
<!-- legend_class&#45;&gt;legend_class -->
<g id="edge3" class="edge">
<title>legend_class&#45;&gt;legend_class</title>
<path fill="none" stroke="#333333" d="M123.28,-135.42C134.28,-135.32 143,-132.11 143,-125.8 143,-121.85 139.59,-119.12 134.35,-117.61"/>
<polygon fill="#333333" stroke="#333333" points="124.48,-116.34 134.98,-113.15 128.23,-116.82 134.4,-117.61 134.4,-117.61 134.4,-117.61 128.23,-116.82 133.83,-122.08 124.48,-116.34"/>
<text text-anchor="middle" x="162.88" y="-122.7" font-family="Helvetica,sans-Serif" font-size="8.00">object prop</text>
</g>
<!-- legend_dtype -->
<g id="node2" class="node">
<title>legend_dtype</title>
<polygon fill="#fff2cc" stroke="#d6b656" points="69,-52 15.76,-34 69,-16 122.24,-34 69,-52"/>
<text text-anchor="middle" x="69" y="-30.32" font-family="Helvetica,sans-Serif" font-size="9.00">bp:Datatype</text>
</g>
<!-- legend_class&#45;&gt;legend_dtype -->
<g id="edge1" class="edge">
<title>legend_class&#45;&gt;legend_dtype</title>
<path fill="none" stroke="#b8860b" stroke-dasharray="5,2" d="M82.89,-97.37C80.41,-86.23 77.55,-73.4 75.08,-62.28"/>
<polygon fill="#b8860b" stroke="#b8860b" points="78.49,-61.52 72.9,-52.52 71.66,-63.04 78.49,-61.52"/>
<text text-anchor="middle" x="103.15" y="-71.4" font-family="Helvetica,sans-Serif" font-size="8.00">datatype prop</text>
</g>
<!-- legend_xsd -->
<g id="node3" class="node">
<title>legend_xsd</title>
<polygon fill="#f5f5f5" stroke="#999999" points="194,-52 140,-52 140,-16 194,-16 194,-52"/>
<text text-anchor="middle" x="167" y="-30.32" font-family="Helvetica,sans-Serif" font-size="9.00">xsd:Type</text>
</g>
<!-- legend_class&#45;&gt;legend_xsd -->
<g id="edge2" class="edge">
<title>legend_class&#45;&gt;legend_xsd</title>
<path fill="none" stroke="#888888" stroke-dasharray="5,2" d="M110.81,-102.31C117.72,-94.99 125.29,-86.76 132,-79 136.86,-73.38 141.92,-67.21 146.64,-61.32"/>
<polygon fill="#888888" stroke="#888888" points="149.3,-63.6 152.75,-53.59 143.8,-59.26 149.3,-63.6"/>
<text text-anchor="middle" x="154.32" y="-71.4" font-family="Helvetica,sans-Serif" font-size="8.00">xsd prop</text>
</g>
</g>
</svg>
